# xmcd
#
# Track frame offsets:
#	150
#	14390
#	35405
#	56562
#	76660
#	98117
#	112935
#	127072
#	142185
#	160122
#	172247
#	187905
#	203945
#	218677
#	234550
#	253647
#	272030
#	294945
#	314902
#	334837
#
# Disc length: 4698 seconds
#
# Revision: 2
# Processed by: cddbd v1.5.2PL0 Copyright (c) Steve Scherf et al.
# Submitted via: dBpowerAMP V4.0
#
DISCID=26125814
DTITLE=Kleiton and Kledir - Millennium
DYEAR=1998
DGENRE=MPB
TTITLE0=Vira virou
TTITLE1=Deu pra ti
TTITLE2=Fonte da saudade
TTITLE3=Tô que tô
TTITLE4=Navega, coração
TTITLE5=Trova
TTITLE6=Estrela, estrela
TTITLE7=Lagoa dos patos
TTITLE8=Viva
TTITLE9=Pára, Pedro
TTITLE10=Saiçú (Segredo do meu coração)
TTITLE11=Bailão
TTITLE12=Roda da fortuna
TTITLE13=Maria fumaça
TTITLE14=Tô a fim de ficar contigo
TTITLE15=O analista de Bagé
TTITLE16=Corpo e alma
TTITLE17=Roda de chimarrão
TTITLE18=Paixão
TTITLE19=Nem pensar
EXTD=Giba Barroso
EXTT0=
EXTT1=
EXTT2=
EXTT3=
EXTT4=
EXTT5=
EXTT6=
EXTT7=
EXTT8=
EXTT9=
EXTT10=
EXTT11=
EXTT12=
EXTT13=
EXTT14=
EXTT15=
EXTT16=
EXTT17=
EXTT18=
EXTT19=
PLAYORDER=
